<?xml version="1.0" encoding="UTF-8"?>
<svg id="Capa_1" data-name="Capa 1" xmlns="http://www.w3.org/2000/svg" viewBox="0 0 74.22 104.63">
  <defs>
    <style>
      .cls-1 {
        fill: #fff;
      }

      .cls-2 {
        fill: #ffcf5a;
      }

      .cls-3 {
        fill: #ffb430;
      }

      .cls-4 {
        fill: #27cd7e;
      }

      .cls-5 {
        fill: #424a61;
      }

      .cls-6 {
        fill: #d1d4dd;
      }
    </style>
  </defs>
  <rect class="cls-5" y="14.53" width="74.22" height="90.1" rx="5.48" ry="5.48"/>
  <polyline class="cls-1" points="15.93 21.33 7.32 21.33 7.32 97.2 66.46 97.2 66.69 21.33 57.9 21.33"/>
  <path class="cls-3" d="M16.32,9.35h11.45c.05-.91,.3-3.48,2.25-5.82C32.68,.33,36.45,.05,37.12,0c.48-.02,4.47-.14,7.18,3.08,2.19,2.6,2.05,5.61,2.01,6.26h11.59v5.18H16.32v-5.18Z"/>
  <circle class="cls-1" cx="37" cy="7.07" r="3.37"/>
  <polyline class="cls-3" points="16.32 14.53 16.32 19.23 57.9 19.23 57.9 14.53"/>
  <polyline class="cls-2" points="57.9 19.23 57.9 26.08 16.32 26.08 16.32 19.23"/>
  <rect class="cls-6" x="30.21" y="35.66" width="28.22" height="5.04" rx="2.52" ry="2.52"/>
  <rect class="cls-6" x="30.21" y="47.75" width="27.83" height="4.84" rx="2.42" ry="2.42"/>
  <rect class="cls-6" x="30.21" y="59.88" width="27.83" height="4.45" rx="2.23" ry="2.23"/>
  <rect class="cls-6" x="30.46" y="71.76" width="27.59" height="4.06" rx="2.03" ry="2.03"/>
  <path class="cls-4" d="M18.57,42.36l6.75-6.7c.71-.78,.57-1.96-.15-2.49-.6-.45-1.53-.4-2.15,.2-1.39,1.42-2.77,2.84-4.16,4.26l-1.81-1.71c-.53-.34-1.17-.41-1.66-.15-.71,.39-1.04,1.46-.54,2.42,1.24,1.39,2.48,2.79,3.72,4.18Z"/>
  <path class="cls-4" d="M18.57,66.12l6.75-6.7c.71-.78,.57-1.96-.15-2.49-.6-.45-1.53-.4-2.15,.2-1.39,1.42-2.77,2.84-4.16,4.26l-1.81-1.71c-.53-.34-1.17-.41-1.66-.15-.71,.39-1.04,1.46-.54,2.42,1.24,1.39,2.48,2.79,3.72,4.18Z"/>
  <path class="cls-4" d="M18.57,54.24l6.75-6.7c.71-.78,.57-1.96-.15-2.49-.6-.45-1.53-.4-2.15,.2-1.39,1.42-2.77,2.84-4.16,4.26l-1.81-1.71c-.53-.34-1.17-.41-1.66-.15-.71,.39-1.04,1.46-.54,2.42,1.24,1.39,2.48,2.79,3.72,4.18Z"/>
  <path class="cls-4" d="M18.57,77.91l6.75-6.7c.71-.78,.57-1.96-.15-2.49-.6-.45-1.53-.4-2.15,.2-1.39,1.42-2.77,2.84-4.16,4.26l-1.81-1.71c-.53-.34-1.17-.41-1.66-.15-.71,.39-1.04,1.46-.54,2.42,1.24,1.39,2.48,2.79,3.72,4.18Z"/>
</svg>